<?xml version="1.0"?><svg xmlns="http://www.w3.org/2000/svg"  viewBox="0 0 50 50" width="50px" height="50px">    <path d="M 33.5 0 C 33.5 0 33.125 9.375 24 13.375 C 20.917 14.813 12 18.125 12 28.5 C 12 31.375 12.625 34.25 13.5 36 C 13.5 34.125 13.875 31.125 15.375 28.875 C 17.108 26.276 19.192 24.683 21.875 23.375 C 22.704 22.923 23.947172 22.413 24.826172 22 C 25.272172 21.79 25.7275 21.575563 26.1875 21.351562 C 33.5625 17.754562 34.818094 11.076937 34.996094 8.0859375 C 34.996094 8.0569375 35 8.028 35 8 C 35 2 33.5 0 33.5 0 z M 32.996094 8.0039062 L 32.996094 8.0078125 L 32.996094 8.0195312 C 32.805094 11.045531 31.543594 16.513687 25.308594 19.554688 C 24.857594 19.774687 24.412609 19.983453 23.974609 20.189453 C 23.685609 20.325453 23.354672 20.473 23.013672 20.625 C 22.302672 20.942 21.566984 21.269656 20.958984 21.597656 C 17.939984 23.075656 15.784828 24.841391 14.048828 27.275391 C 14.654828 19.784391 20.788109 17.019047 24.162109 15.498047 C 24.411109 15.386047 24.641734 15.283031 24.802734 15.207031 C 28.906734 13.408031 31.436094 10.664906 32.996094 8.0039062 z M 36.5 14 C 36.5 14 36.125 18 35 18 C 34.5 18 34.625 16 34.625 16 C 33.408 18.75 30.8945 21.279438 27.0625 23.148438 C 26.5935 23.377437 26.131734 23.594594 25.677734 23.808594 C 25.361734 23.957594 25.055906 24.102094 24.753906 24.246094 L 24.75 24.25 C 21.125 26.25 20.25 29 20 31 C 21.375 28.5 24.291 26.742 27 26 C 25 28 25 31.026641 25 34.431641 C 25 38.323641 24.553 40.554 23.375 42.875 C 21.971 45.64 18.875 48.297 16 50 C 16.607 49.932 28.366 48.063359 33.625 43.068359 C 38.875 38.081359 38.725 34.336 39 32 C 38.125 33.946 35.5 37 32.875 37 C 31.523 37 31 36.299437 31 35.273438 C 31 33.692437 32.220219 32.5715 32.449219 32.3125 C 36.250219 27.9995 37 25 37 19.875 C 37 16.125 36.5 14 36.5 14 z M 34.509766 19.945312 C 34.667766 19.981313 34.833 20 35 20 C 34.99 24.519 34.406078 27.067422 30.955078 30.982422 L 30.904297 31.035156 C 30.433297 31.533156 29 33.047438 29 35.273438 C 29 37.536437 30.521 39 32.875 39 C 33.547 39 34.20775 38.872484 34.84375 38.646484 C 34.20775 39.566484 33.367047 40.554187 32.248047 41.617188 C 30.191047 43.571188 26.824484 45.053656 23.646484 46.097656 C 24.259484 45.325656 24.769203 44.545297 25.158203 43.779297 C 26.500203 41.135297 27 38.602641 27 34.431641 C 27 31.685641 26.999125 29.601531 27.953125 28.019531 C 29.013125 26.189531 31 24.248047 31 24.248047 C 29.75 23.999047 29.693359 24 29.693359 24 C 32.189359 22.504 33.717766 20.911312 34.509766 19.945312 z"/></svg>