<?xml version="1.0"?><svg xmlns="http://www.w3.org/2000/svg" fill="#f97316"  viewBox="0 0 50 50" width="50px" height="50px">    <path d="M 33.5 0 C 33.5 0 33.125 9.375 24 13.375 C 20.917 14.813 12 18.125 12 28.5 C 12 31.375 12.625 34.25 13.5 36 C 13.5 34.125 13.875 31.125 15.375 28.875 C 17.108 26.276 19.192 24.683 21.875 23.375 C 22.704 22.923 23.947172 22.413 24.826172 22 C 25.272172 21.79 25.7275 21.575563 26.1875 21.351562 C 33.5625 17.754562 34.818094 11.076937 34.996094 8.0859375 C 34.996094 8.0569375 35 8.028 35 8 C 35 2 33.5 0 33.5 0 z M 36.5 14 C 36.5 14 36.125 18 35 18 C 34.5 18 34.625 16 34.625 16 C 33.408 18.75 30.8945 21.279438 27.0625 23.148438 C 26.5935 23.377437 26.131734 23.594594 25.677734 23.808594 C 25.361734 23.957594 25.055906 24.102094 24.753906 24.246094 L 24.75 24.25 C 21.125 26.25 20.25 29 20 31 C 21.375 28.5 24.291 26.742 27 26 C 25 28 25 31.026641 25 34.431641 C 25 38.323641 24.553 40.554 23.375 42.875 C 21.971 45.64 18.875 48.297 16 50 C 16.607 49.932 28.366 48.063359 33.625 43.068359 C 38.875 38.081359 38.725 34.336 39 32 C 38.125 33.946 35.5 37 32.875 37 C 31.523 37 31 36.299437 31 35.273438 C 31 33.692437 32.220219 32.5715 32.449219 32.3125 C 36.250219 27.9995 37 25 37 19.875 C 37 16.125 36.5 14 36.5 14 z"/></svg>